<svg xmlns="http://www.w3.org/2000/svg" width="1800" height="1200" viewBox="0 0 1800 1200">
  <defs>
    <linearGradient id="bg" x1="0" y1="0" x2="1" y2="1">
      <stop offset="0%" stop-color="#0b1220"/>
      <stop offset="100%" stop-color="#0f172a"/>
    </linearGradient>
  </defs>
  <rect width="1800" height="1200" fill="url(#bg)"/>
  <text x="24" y="42" fill="#e2e8f0" font-size="30" font-family="Arial">그라파나 대시보드 샘플 (상단 6카드 구성)</text>
  <text x="24" y="70" fill="#94a3b8" font-size="16" font-family="Arial">기존 3층 6개 카드를 1층으로 그대로 올린 레이아웃</text>

  <!-- 1st floor: original 6 cards (as-is) -->
  <rect x="20" y="90" width="285" height="220" rx="10" fill="#111a2b" stroke="#334155"/>
  <text x="35" y="120" fill="#cbd5e1" font-size="17" font-family="Arial">실현 손익 (누적)</text>
  <text x="35" y="150" fill="#94a3b8" font-size="14" font-family="Arial">일별 / 누적</text>
  <polyline fill="none" stroke="#22c55e" stroke-width="2.5" points="40,265 90,255 140,262 190,240 240,225 290,210"/>
  <text x="35" y="295" fill="#22c55e" font-size="24" font-family="Arial">+12.8%</text>

  <rect x="315" y="90" width="285" height="220" rx="10" fill="#111a2b" stroke="#334155"/>
  <text x="330" y="120" fill="#cbd5e1" font-size="17" font-family="Arial">최대 낙폭 (MDD)</text>
  <text x="330" y="150" fill="#94a3b8" font-size="14" font-family="Arial">고점 대비 하락폭</text>
  <polyline fill="none" stroke="#ef4444" stroke-width="2.5" points="335,205 385,210 435,225 485,250 535,235 585,255"/>
  <text x="330" y="295" fill="#ef4444" font-size="24" font-family="Arial">-8.4%</text>

  <rect x="610" y="90" width="285" height="220" rx="10" fill="#111a2b" stroke="#334155"/>
  <text x="625" y="120" fill="#cbd5e1" font-size="17" font-family="Arial">승률 / 손익비 / 기대값</text>
  <text x="625" y="150" fill="#94a3b8" font-size="14" font-family="Arial">승률, 손익비, 기대값</text>
  <text x="625" y="195" fill="#e2e8f0" font-size="18" font-family="Arial">승률: 54.2%</text>
  <text x="625" y="225" fill="#e2e8f0" font-size="18" font-family="Arial">R/R: 1.38</text>
  <text x="625" y="255" fill="#e2e8f0" font-size="18" font-family="Arial">기대값: +0.42R</text>

  <rect x="905" y="90" width="285" height="220" rx="10" fill="#111a2b" stroke="#334155"/>
  <text x="920" y="120" fill="#cbd5e1" font-size="17" font-family="Arial">신호 품질</text>
  <text x="920" y="150" fill="#94a3b8" font-size="14" font-family="Arial">1일/3일/7일 선행 수익률</text>
  <polyline fill="none" stroke="#38bdf8" stroke-width="2.3" points="925,260 975,240 1025,245 1075,220 1125,210 1175,200"/>
  <text x="920" y="295" fill="#e2e8f0" font-size="17" font-family="Arial">7일 평균: +1.9%</text>

  <rect x="1200" y="90" width="285" height="220" rx="10" fill="#111a2b" stroke="#334155"/>
  <text x="1215" y="120" fill="#cbd5e1" font-size="17" font-family="Arial">슬리피지</text>
  <text x="1215" y="150" fill="#94a3b8" font-size="14" font-family="Arial">신호가 대비 체결가</text>
  <line x1="1218" y1="230" x2="1465" y2="230" stroke="#64748b" stroke-width="1.4"/>
  <polyline fill="none" stroke="#f97316" stroke-width="2.5" points="1220,230 1260,218 1300,238 1340,224 1380,232 1420,219 1460,227"/>
  <text x="1215" y="295" fill="#e2e8f0" font-size="17" font-family="Arial">평균: 0.11%</text>

  <rect x="1495" y="90" width="285" height="220" rx="10" fill="#111a2b" stroke="#334155"/>
  <text x="1510" y="120" fill="#cbd5e1" font-size="17" font-family="Arial">전략 상태</text>
  <text x="1510" y="150" fill="#94a3b8" font-size="14" font-family="Arial">스케줄러/API/에러율</text>
  <circle cx="1525" cy="190" r="7" fill="#22c55e"/><text x="1540" y="196" fill="#e2e8f0" font-size="15" font-family="Arial">스케줄러: 정상</text>
  <circle cx="1525" cy="220" r="7" fill="#22c55e"/><text x="1540" y="226" fill="#e2e8f0" font-size="15" font-family="Arial">캔들 수집: 정상</text>
  <circle cx="1525" cy="250" r="7" fill="#f59e0b"/><text x="1540" y="256" fill="#e2e8f0" font-size="15" font-family="Arial">API 재시도율: 0.7%</text>
  <text x="1510" y="295" fill="#e2e8f0" font-size="15" font-family="Arial">에러(1시간): 0</text>

  <!-- 2nd floor: original top price panel -->
  <rect x="20" y="330" width="1760" height="300" rx="10" fill="#111a2b" stroke="#334155"/>
  <text x="38" y="364" fill="#cbd5e1" font-size="21" font-family="Arial">V5 가격 + 밴드 + 매수/매도 포인트</text>
  <polyline fill="none" stroke="#7dd3fc" stroke-width="3" points="40,585 130,575 220,590 310,550 400,540 490,525 580,535 670,510 760,485 850,495 940,470 1030,450 1120,460 1210,445 1300,425 1390,415 1480,400 1570,410 1660,385 1740,372"/>
  <polyline fill="none" stroke="#f59e0b" stroke-width="2" points="40,600 130,590 220,580 310,570 400,560 490,550 580,542 670,534 760,526 850,516 940,505 1030,494 1120,482 1210,471 1300,460 1390,448 1480,436 1570,424 1660,413 1740,402"/>
  <polygon points="310,550 300,568 320,568" fill="#22c55e"/>
  <polygon points="940,470 930,488 950,488" fill="#22c55e"/>
  <polygon points="1390,415 1380,433 1400,433" fill="#22c55e"/>
  <polygon points="580,535 570,518 590,518" fill="#f97316"/>
  <polygon points="1210,445 1200,428 1220,428" fill="#f97316"/>
  <polygon points="1660,385 1650,368 1670,368" fill="#f97316"/>

  <!-- 3rd floor: original row2 panels -->
  <rect x="20" y="650" width="870" height="240" rx="10" fill="#111a2b" stroke="#334155"/>
  <text x="38" y="684" fill="#cbd5e1" font-size="20" font-family="Arial">V5 미실현 수익률 (%)</text>
  <line x1="40" y1="800" x2="870" y2="800" stroke="#64748b" stroke-width="1.4"/>
  <polyline fill="none" stroke="#a78bfa" stroke-width="3" points="45,830 130,815 215,820 300,790 385,770 470,785 555,760 640,740 725,725 810,710"/>

  <rect x="910" y="650" width="870" height="240" rx="10" fill="#111a2b" stroke="#334155"/>
  <text x="928" y="684" fill="#cbd5e1" font-size="20" font-family="Arial">V5 변동성 + 신호 사유 집계</text>
  <polyline fill="none" stroke="#f472b6" stroke-width="3" points="930,840 1005,825 1080,790 1155,770 1230,780 1305,745 1380,725 1455,760 1530,710 1605,690 1680,710 1750,670"/>
  <line x1="930" y1="760" x2="1760" y2="760" stroke="#f59e0b" stroke-width="2" stroke-dasharray="8 8"/>

  <!-- 4th floor: recent table -->
  <rect x="20" y="910" width="1760" height="270" rx="10" fill="#111a2b" stroke="#334155"/>
  <text x="38" y="944" fill="#cbd5e1" font-size="20" font-family="Arial">최근 V5 캔들 신호 로그</text>
  <text x="40" y="978" fill="#94a3b8" font-size="15" font-family="Arial">ts                market    close   regime   buy sell reason      pos_qty unreal_ret%</text>
  <text x="40" y="1008" fill="#e2e8f0" font-size="15" font-family="Courier New">2026-02-20 00:00Z KRW-BTC  145.2   BULL     T   F   BASE_BUY    0.0000  NaN</text>
  <text x="40" y="1038" fill="#e2e8f0" font-size="15" font-family="Courier New">2026-02-21 00:00Z KRW-BTC  149.8   BULL     F   F   NONE        0.0312  +2.94</text>
  <text x="40" y="1068" fill="#e2e8f0" font-size="15" font-family="Courier New">2026-02-22 00:00Z KRW-BTC  142.4   BEAR     F   T   BASE_SELL   0.0312  -1.87</text>

  <text x="24" y="1190" fill="#64748b" font-size="14" font-family="Arial">샘플 목업입니다. 실제 표시는 Grafana 패널 옵션과 Loki 실데이터에 따라 달라질 수 있습니다.</text>
</svg>
